<svg xmlns="http://www.w3.org/2000/svg" viewBox="0 0 32 32">
  <defs>
    <linearGradient id="sky" x1="0" y1="0" x2="0" y2="1">
      <stop offset="0%" stop-color="#0891B2"/>
      <stop offset="100%" stop-color="#06B6D4"/>
    </linearGradient>
    <linearGradient id="sand" x1="0" y1="0" x2="0" y2="1">
      <stop offset="0%" stop-color="#D4A843"/>
      <stop offset="100%" stop-color="#B8941F"/>
    </linearGradient>
  </defs>
  <!-- Background circle -->
  <circle cx="16" cy="16" r="15" fill="url(#sky)" stroke="#065F73" stroke-width="1"/>
  <!-- Sun -->
  <circle cx="24" cy="8" r="4" fill="#F59E0B" opacity="0.9"/>
  <!-- Palm trunk -->
  <path d="M12 28 L14 14" stroke="#8B6914" stroke-width="2" stroke-linecap="round" fill="none"/>
  <!-- Palm fronds -->
  <path d="M14 14 Q8 8 4 10" stroke="#15803D" stroke-width="1.5" fill="none" stroke-linecap="round"/>
  <path d="M14 14 Q10 6 6 6" stroke="#16A34A" stroke-width="1.5" fill="none" stroke-linecap="round"/>
  <path d="M14 14 Q16 6 20 7" stroke="#15803D" stroke-width="1.5" fill="none" stroke-linecap="round"/>
  <path d="M14 14 Q18 8 22 10" stroke="#16A34A" stroke-width="1.5" fill="none" stroke-linecap="round"/>
  <path d="M14 14 Q12 7 8 5" stroke="#22C55E" stroke-width="1.2" fill="none" stroke-linecap="round"/>
  <!-- Wave -->
  <path d="M1 24 Q5 22 9 24 Q13 26 17 24 Q21 22 25 24 Q29 26 31 24" stroke="white" stroke-width="1.2" fill="none" opacity="0.7"/>
  <!-- Sand -->
  <path d="M1 27 Q8 25 16 27 Q24 29 31 27 L31 31 L1 31 Z" fill="url(#sand)" opacity="0.8"/>
</svg>
